<svg width="300" height="150" viewBox="0 0 300 150" fill="none" xmlns="http://www.w3.org/2000/svg">
  <path d="M280 10C280 10 260 40 230 45C200 50 180 30 150 35C120 40 100 70 70 75C40 80 20 60 0 60" stroke="#4ADE80" stroke-width="2" stroke-opacity="0.4" fill="none"/>
  <path d="M280 10C280 10 270 30 250 35" stroke="#4ADE80" stroke-width="1" stroke-opacity="0.4" fill="none"/>
  
  <!-- Leaves -->
  <path d="M230 45 Q 240 25 255 35 Q 245 55 230 45" fill="#22c55e" fill-opacity="0.6" />
  <path d="M150 35 Q 160 15 175 25 Q 165 45 150 35" fill="#22c55e" fill-opacity="0.6" />
  <path d="M70 75 Q 80 55 95 65 Q 85 85 70 75" fill="#22c55e" fill-opacity="0.6" />
  
  <!-- More vines -->
  <path d="M290 0C290 0 280 20 260 20" stroke="#22c55e" stroke-width="2" stroke-opacity="0.3" fill="none"/>
</svg>